<svg xmlns="http://www.w3.org/2000/svg" xmlns:xlink="http://www.w3.org/1999/xlink" width="260" zoomAndPan="magnify" viewBox="0 0 194.87999 69.749997" height="93" preserveAspectRatio="xMidYMid meet" version="1.0"><defs><clipPath id="a80e47e409"><path d="M 7.714844 7.652344 L 60 7.652344 L 60 60 L 7.714844 60 Z M 7.714844 7.652344 " clip-rule="nonzero"/></clipPath><clipPath id="9cdac6636e"><path d="M 69 10 L 108 10 L 108 62.207031 L 69 62.207031 Z M 69 10 " clip-rule="nonzero"/></clipPath><clipPath id="97188b00d3"><path d="M 140 15 L 187.074219 15 L 187.074219 58 L 140 58 Z M 140 15 " clip-rule="nonzero"/></clipPath></defs><g clip-path="url(#a80e47e409)"><path fill="#00e47c" d="M 19.386719 55.558594 C 15.679688 52.867188 13.714844 50.890625 11.859375 48.035156 C 9.1875 43.859375 7.714844 38.804688 7.714844 33.804688 C 7.714844 19.355469 19.28125 7.65625 33.625 7.65625 C 47.972656 7.65625 59.535156 19.355469 59.535156 33.75 C 59.535156 39.683594 57.519531 45.617188 53.972656 50.011719 C 52.5 51.878906 51.242188 52.976562 47.863281 55.558594 L 47.863281 40.285156 L 50.425781 40.285156 L 50.425781 50.722656 C 52.335938 48.472656 53.261719 47.097656 54.191406 45.449219 C 56.097656 42.042969 57.136719 37.8125 57.136719 33.746094 C 57.136719 20.5625 46.609375 9.847656 33.625 9.847656 C 20.644531 9.847656 10.117188 20.566406 10.117188 33.914062 C 10.117188 40.011719 12.242188 45.394531 16.769531 50.722656 L 16.769531 40.285156 L 19.386719 40.285156 Z M 24.515625 58.195312 C 24.023438 58.085938 22.878906 57.539062 21.953125 57.042969 L 21.953125 40.285156 L 24.515625 40.285156 Z M 40.117188 21.386719 L 33.625 16.335938 L 27.136719 21.386719 L 25.714844 19.519531 L 33.625 13.3125 L 41.535156 19.519531 Z M 29.699219 59.570312 C 28.769531 59.40625 28.71875 59.40625 28.386719 59.296875 C 28.117188 59.242188 28.007812 59.242188 27.136719 59.019531 L 27.136719 23.3125 L 29.699219 23.3125 Z M 34.878906 59.789062 C 34.496094 59.84375 34.386719 59.84375 33.84375 59.84375 C 33.023438 59.84375 32.753906 59.84375 32.316406 59.789062 L 32.316406 23.3125 L 34.878906 23.3125 Z M 40.0625 58.964844 C 39.242188 59.242188 38.53125 59.40625 37.5 59.625 L 37.5 23.3125 L 40.0625 23.3125 Z M 45.296875 57.042969 C 44.480469 57.429688 43.988281 57.648438 42.679688 58.253906 L 42.679688 40.289062 L 45.296875 40.289062 Z M 45.296875 57.042969 " fill-opacity="1" fill-rule="nonzero"/></g><g clip-path="url(#9cdac6636e)"><path fill="#00e47c" d="M 74.921875 10.234375 C 75.738281 10.183594 76.394531 10.125 76.613281 10.125 C 79.71875 10.125 81.792969 11.941406 81.792969 14.742188 C 81.792969 16.664062 80.757812 18.039062 78.519531 19.136719 C 81.355469 19.742188 82.882812 21.554688 82.882812 24.246094 C 82.882812 26.332031 81.738281 28.089844 79.9375 28.804688 C 79.121094 29.132812 78.136719 29.242188 76.339844 29.242188 L 74.648438 29.242188 C 73.722656 29.1875 73.011719 29.1875 72.46875 29.1875 L 69.304688 29.1875 L 69.304688 28.089844 L 71.15625 27.761719 L 71.15625 11.773438 L 69.304688 11.445312 L 69.304688 10.292969 L 72.628906 10.292969 L 74.921875 10.238281 Z M 69.410156 57.261719 L 69.410156 56.164062 L 71.15625 55.835938 L 71.15625 39.792969 L 69.410156 39.519531 L 69.410156 38.3125 L 75.683594 38.3125 L 75.683594 39.464844 L 74.046875 39.792969 L 74.046875 55.78125 L 75.628906 56.109375 L 75.628906 57.261719 Z M 75.246094 18.640625 C 77.59375 18.640625 78.683594 17.433594 78.683594 14.851562 C 78.683594 12.652344 77.539062 11.335938 75.574219 11.335938 C 75.03125 11.335938 74.648438 11.390625 73.882812 11.664062 L 73.882812 18.640625 Z M 73.882812 27.652344 C 74.429688 27.980469 74.8125 28.089844 75.574219 28.089844 C 78.140625 28.089844 79.71875 26.496094 79.71875 23.914062 C 79.71875 21.335938 78.25 19.960938 75.085938 19.960938 L 73.882812 19.960938 Z M 84.304688 57.261719 L 84.304688 56.164062 L 85.722656 55.886719 L 85.722656 47.867188 C 85.722656 46.328125 85.230469 45.617188 84.195312 45.617188 C 83.375 45.617188 82.664062 45.945312 81.628906 46.824219 L 81.628906 55.777344 L 83.050781 56.105469 L 83.050781 57.261719 L 77.433594 57.261719 L 77.433594 56.164062 L 79.015625 55.835938 L 79.015625 45.835938 L 77.433594 45.617188 L 77.433594 44.515625 L 80.816406 43.636719 L 81.578125 43.636719 L 81.578125 45.285156 C 83.214844 44.023438 83.980469 43.691406 85.179688 43.691406 C 87.25 43.691406 88.394531 45.011719 88.394531 47.261719 L 88.394531 55.777344 L 89.816406 56.105469 L 89.816406 57.261719 Z M 95.703125 22.210938 C 95.703125 26.554688 93.464844 29.464844 90.191406 29.464844 C 86.921875 29.464844 84.957031 26.714844 84.957031 22.707031 C 84.957031 18.421875 87.191406 15.453125 90.464844 15.453125 C 93.738281 15.453125 95.703125 18.144531 95.703125 22.210938 Z M 87.847656 22.597656 C 87.847656 26.113281 88.722656 28.089844 90.25 28.089844 C 91.882812 28.089844 92.757812 26.003906 92.757812 21.882812 C 92.757812 18.585938 91.882812 16.773438 90.359375 16.773438 C 88.832031 16.773438 87.847656 18.914062 87.847656 22.597656 Z M 100.339844 45.503906 C 101.105469 46.492188 101.324219 47.152344 101.324219 48.195312 C 101.324219 50.722656 99.359375 52.59375 96.738281 52.59375 C 96.195312 52.59375 95.757812 52.539062 95.265625 52.371094 C 94.613281 52.808594 94.230469 53.25 94.230469 53.578125 C 94.230469 53.910156 94.558594 54.074219 95.375 54.128906 L 98.648438 54.292969 C 101.214844 54.402344 102.414062 55.390625 102.414062 57.425781 C 102.414062 60.335938 99.851562 62.203125 95.921875 62.203125 C 92.976562 62.203125 91.066406 61.105469 91.066406 59.402344 C 91.066406 58.304688 91.613281 57.589844 93.195312 56.542969 C 92.101562 56.105469 91.664062 55.609375 91.664062 54.839844 C 91.664062 53.851562 92.375 52.972656 94.121094 51.875 C 92.484375 50.832031 91.882812 49.785156 91.882812 48.085938 C 91.882812 45.503906 93.847656 43.527344 96.410156 43.527344 C 96.957031 43.527344 97.175781 43.578125 98.15625 43.800781 C 98.703125 43.964844 99.085938 44.019531 99.355469 44.019531 C 99.410156 44.019531 99.628906 44.019531 99.847656 43.964844 L 100.339844 43.964844 L 102.574219 43.914062 L 102.574219 45.503906 Z M 94.667969 56.769531 C 93.960938 57.425781 93.6875 57.976562 93.6875 58.800781 C 93.6875 60.007812 94.777344 60.722656 96.578125 60.722656 C 98.816406 60.722656 100.507812 59.789062 100.507812 58.46875 C 100.507812 57.316406 99.90625 57.097656 95.707031 56.824219 L 94.671875 56.769531 Z M 94.777344 47.976562 C 94.777344 50.285156 95.324219 51.328125 96.632812 51.328125 C 97.941406 51.328125 98.488281 50.285156 98.488281 48.253906 C 98.488281 45.835938 97.832031 44.683594 96.523438 44.683594 C 95.324219 44.683594 94.777344 45.726562 94.777344 47.976562 Z M 100.449219 22.269531 C 100.722656 26.003906 101.652344 27.542969 103.613281 27.542969 C 104.59375 27.542969 105.304688 27.046875 106.125 25.785156 L 107.324219 26.28125 C 105.960938 28.753906 104.976562 29.464844 102.851562 29.464844 C 99.578125 29.464844 97.722656 27.105469 97.722656 22.820312 C 97.722656 18.261719 99.632812 15.511719 102.792969 15.511719 C 105.957031 15.511719 107.320312 17.710938 107.378906 22.269531 Z M 104.59375 20.949219 C 104.484375 17.984375 103.941406 16.828125 102.6875 16.828125 C 101.433594 16.828125 100.777344 18.09375 100.449219 20.949219 Z M 104.59375 20.949219 " fill-opacity="1" fill-rule="nonzero"/></g><path fill="#00e47c" d="M 106.777344 50.285156 C 107.050781 54.074219 107.976562 55.613281 109.941406 55.613281 C 110.980469 55.613281 111.6875 55.117188 112.503906 53.855469 L 113.707031 54.351562 C 112.453125 56.714844 111.304688 57.539062 109.179688 57.539062 C 105.90625 57.539062 104.050781 55.066406 104.050781 50.835938 C 104.050781 46.277344 105.957031 43.582031 109.121094 43.582031 C 111.304688 43.582031 112.722656 44.738281 113.378906 46.878906 C 113.597656 47.59375 113.648438 48.472656 113.757812 50.285156 Z M 110.921875 49.023438 C 110.871094 46.167969 110.324219 44.902344 109.070312 44.902344 C 107.816406 44.902344 107.105469 46.109375 106.777344 49.023438 Z M 115.832031 29.191406 L 115.832031 28.09375 L 117.140625 27.816406 L 117.140625 20.402344 C 117.140625 18.421875 116.707031 17.710938 115.558594 17.710938 C 114.742188 17.710938 114.140625 17.984375 113.050781 18.917969 L 113.050781 27.761719 L 114.359375 28.035156 L 114.359375 29.191406 L 108.796875 29.191406 L 108.796875 28.09375 L 110.433594 27.761719 L 110.433594 11.003906 L 108.902344 10.675781 L 108.902344 9.742188 L 112.285156 9.03125 L 113.050781 9.03125 L 113.050781 17.324219 C 114.578125 16.117188 115.449219 15.730469 116.597656 15.730469 C 118.722656 15.730469 119.8125 16.992188 119.8125 19.464844 L 119.8125 27.761719 L 121.234375 28.035156 L 121.234375 29.191406 Z M 115.339844 57.261719 L 115.339844 56.164062 L 116.921875 55.835938 L 116.921875 38.914062 L 115.394531 38.75 L 115.394531 37.816406 L 118.832031 37.046875 L 119.539062 37.046875 L 119.539062 55.78125 L 121.011719 56.109375 L 121.011719 57.265625 L 115.339844 57.265625 Z M 129.796875 57.261719 L 129.796875 56.164062 L 131.105469 55.890625 L 131.105469 48.417969 C 131.105469 46.441406 130.667969 45.726562 129.523438 45.726562 C 128.757812 45.726562 128.105469 46.054688 127.011719 46.992188 L 127.011719 55.78125 L 128.324219 56.109375 L 128.324219 57.265625 L 122.8125 57.265625 L 122.8125 56.167969 L 124.394531 55.839844 L 124.394531 39.027344 L 122.867188 38.753906 L 122.867188 37.820312 L 126.304688 37.050781 L 127.011719 37.050781 L 127.011719 45.402344 C 128.484375 44.191406 129.359375 43.808594 130.613281 43.808594 C 132.628906 43.808594 133.773438 45.070312 133.773438 47.324219 L 133.773438 55.785156 L 135.246094 56.113281 L 135.246094 57.265625 L 129.792969 57.265625 Z M 127.175781 18.148438 C 128.265625 16.28125 128.8125 15.785156 129.796875 15.785156 C 130.777344 15.785156 131.378906 16.390625 131.378906 17.378906 C 131.378906 17.984375 131.050781 18.476562 130.339844 19.027344 L 128.921875 18.257812 C 127.996094 18.75 127.230469 19.796875 127.230469 20.5625 L 127.230469 27.757812 L 129.140625 28.035156 L 129.140625 29.1875 L 123.082031 29.1875 L 123.082031 28.089844 L 124.664062 27.761719 L 124.664062 17.652344 L 123.082031 17.378906 L 123.082031 16.5 L 126.355469 15.617188 L 127.175781 15.617188 Z M 132.742188 29.191406 L 132.742188 28.09375 L 134.214844 27.761719 L 134.214844 17.875 L 132.742188 17.546875 L 132.742188 16.613281 L 136.175781 15.734375 L 136.832031 15.734375 L 136.832031 27.761719 L 138.359375 28.039062 L 138.359375 29.191406 Z M 137.046875 10.785156 C 137.046875 11.773438 136.285156 12.542969 135.304688 12.542969 C 134.324219 12.542969 133.558594 11.773438 133.558594 10.785156 C 133.558594 9.800781 134.324219 9.03125 135.304688 9.03125 C 136.285156 9.03125 137.046875 9.800781 137.046875 10.785156 Z M 139.722656 50.285156 C 139.992188 54.078125 140.921875 55.617188 142.886719 55.617188 C 143.921875 55.617188 144.628906 55.121094 145.449219 53.859375 L 146.648438 54.351562 C 145.394531 56.714844 144.246094 57.539062 142.121094 57.539062 C 138.847656 57.539062 136.992188 55.066406 136.992188 50.839844 C 136.992188 46.277344 138.902344 43.585938 142.066406 43.585938 C 144.246094 43.585938 145.664062 44.738281 146.320312 46.882812 C 146.539062 47.59375 146.59375 48.476562 146.703125 50.289062 L 139.71875 50.289062 Z M 143.867188 49.023438 C 143.808594 46.167969 143.265625 44.902344 142.011719 44.902344 C 140.757812 44.902344 140.046875 46.113281 139.722656 49.023438 Z M 143.867188 49.023438 " fill-opacity="1" fill-rule="nonzero"/><g clip-path="url(#97188b00d3)"><path fill="#00e47c" d="M 147.144531 29.191406 L 147.144531 28.09375 L 148.5625 27.816406 L 148.5625 19.796875 C 148.5625 18.257812 148.070312 17.542969 147.035156 17.542969 C 146.21875 17.542969 145.507812 17.875 144.472656 18.753906 L 144.472656 27.707031 L 145.894531 28.035156 L 145.894531 29.191406 L 140.273438 29.191406 L 140.273438 28.09375 L 141.855469 27.761719 L 141.855469 17.765625 L 140.273438 17.542969 L 140.273438 16.445312 L 143.65625 15.566406 L 144.421875 15.566406 L 144.421875 17.214844 C 146.058594 15.953125 146.820312 15.621094 148.023438 15.621094 C 150.09375 15.621094 151.238281 16.941406 151.238281 19.191406 L 151.238281 27.707031 L 152.65625 28.035156 L 152.65625 29.191406 Z M 148.835938 57.261719 L 148.835938 56.164062 L 150.308594 55.835938 L 150.308594 45.890625 L 148.835938 45.5625 L 148.835938 44.683594 L 152.273438 43.804688 L 152.925781 43.804688 L 152.925781 55.78125 L 154.457031 56.109375 L 154.457031 57.261719 Z M 153.199219 38.804688 C 153.199219 39.792969 152.382812 40.617188 151.398438 40.617188 C 150.417969 40.617188 149.652344 39.847656 149.652344 38.859375 C 149.652344 37.871094 150.472656 37.046875 151.507812 37.046875 C 152.4375 37.046875 153.199219 37.871094 153.199219 38.804688 Z M 163.128906 17.433594 C 163.890625 18.421875 164.109375 19.078125 164.109375 20.125 C 164.109375 22.652344 162.144531 24.519531 159.527344 24.519531 C 158.980469 24.519531 158.542969 24.464844 158.054688 24.296875 C 157.398438 24.738281 157.015625 25.179688 157.015625 25.453125 C 157.015625 25.835938 157.34375 26.003906 158.164062 26.058594 L 161.4375 26.222656 C 164 26.332031 165.199219 27.320312 165.199219 29.351562 C 165.199219 32.265625 162.636719 34.132812 158.710938 34.132812 C 155.765625 34.132812 153.855469 33.035156 153.855469 31.332031 C 153.855469 30.234375 154.453125 29.464844 155.980469 28.472656 C 154.890625 28.035156 154.453125 27.484375 154.453125 26.714844 C 154.453125 25.78125 155.160156 24.902344 156.910156 23.804688 C 155.273438 22.757812 154.671875 21.714844 154.671875 20.015625 C 154.671875 17.433594 156.636719 15.453125 159.199219 15.453125 C 159.746094 15.453125 159.964844 15.507812 160.945312 15.730469 C 161.488281 15.894531 161.871094 15.949219 162.144531 15.949219 C 162.199219 15.949219 162.417969 15.949219 162.636719 15.894531 L 163.128906 15.894531 L 165.363281 15.839844 L 165.363281 17.433594 Z M 170.164062 57.261719 L 170.164062 56.164062 L 171.636719 55.835938 L 171.636719 48.199219 C 171.636719 46.386719 171.144531 45.671875 170 45.671875 C 169.125 45.671875 168.527344 46 167.4375 46.992188 L 167.4375 55.78125 L 168.800781 56.109375 L 168.800781 57.261719 L 163.289062 57.261719 L 163.289062 56.164062 L 164.816406 55.835938 L 164.816406 48.144531 C 164.816406 46.441406 164.269531 45.671875 163.070312 45.671875 C 162.199219 45.671875 161.546875 46 160.617188 46.933594 L 160.617188 55.777344 L 161.871094 56.105469 L 161.871094 57.261719 L 156.308594 57.261719 L 156.308594 56.164062 L 157.890625 55.835938 L 157.890625 45.726562 L 156.308594 45.453125 L 156.308594 44.515625 L 159.746094 43.636719 L 160.453125 43.636719 L 160.453125 45.453125 C 161.816406 44.296875 162.855469 43.859375 164.164062 43.859375 C 165.472656 43.859375 166.453125 44.40625 167.21875 45.617188 C 168.636719 44.296875 169.5625 43.800781 170.984375 43.800781 C 173.328125 43.800781 174.308594 44.957031 174.308594 47.703125 L 174.308594 55.777344 L 175.839844 56.105469 L 175.839844 57.261719 Z M 156.472656 30.726562 C 156.472656 31.9375 157.5625 32.648438 159.363281 32.648438 C 161.597656 32.648438 163.289062 31.660156 163.289062 30.398438 C 163.289062 29.132812 162.855469 29.023438 157.453125 28.695312 C 156.746094 29.351562 156.472656 29.902344 156.472656 30.726562 Z M 157.5625 19.90625 C 157.5625 22.210938 158.105469 23.257812 159.417969 23.257812 C 160.726562 23.257812 161.269531 22.210938 161.269531 20.179688 C 161.269531 17.761719 160.617188 16.609375 159.308594 16.609375 C 158.105469 16.609375 157.5625 17.652344 157.5625 19.90625 Z M 169.617188 22.269531 C 169.890625 26.003906 170.816406 27.542969 172.78125 27.542969 C 173.761719 27.542969 174.472656 27.046875 175.289062 25.785156 L 176.488281 26.28125 C 175.125 28.753906 174.144531 29.464844 172.015625 29.464844 C 168.742188 29.464844 166.886719 27.105469 166.886719 22.820312 C 166.886719 18.261719 168.796875 15.511719 171.960938 15.511719 C 175.125 15.511719 176.488281 17.710938 176.542969 22.269531 Z M 173.761719 20.949219 C 173.652344 17.984375 173.105469 16.828125 171.851562 16.828125 C 170.597656 16.828125 169.945312 18.09375 169.617188 20.949219 Z M 182.871094 18.148438 C 183.960938 16.28125 184.507812 15.785156 185.488281 15.785156 C 186.472656 15.785156 187.070312 16.390625 187.070312 17.378906 C 187.070312 17.984375 186.746094 18.476562 186.035156 19.027344 L 184.617188 18.257812 C 183.6875 18.75 182.925781 19.796875 182.925781 20.5625 L 182.925781 27.757812 L 184.832031 28.035156 L 184.832031 29.1875 L 178.777344 29.1875 L 178.777344 28.089844 L 180.359375 27.761719 L 180.359375 17.652344 L 178.777344 17.378906 L 178.777344 16.5 L 182.050781 15.617188 L 182.867188 15.617188 L 182.867188 18.144531 Z M 182.871094 18.148438 " fill-opacity="1" fill-rule="nonzero"/></g></svg>