<svg xmlns="http://www.w3.org/2000/svg" xmlns:xlink="http://www.w3.org/1999/xlink" width="260" zoomAndPan="magnify" viewBox="0 0 194.87999 69.749997" height="93" preserveAspectRatio="xMidYMid meet" version="1.0"><defs><clipPath id="d8e1ba4bfc"><path d="M 33 42 L 120 42 L 120 61.53125 L 33 61.53125 Z M 33 42 " clip-rule="nonzero"/></clipPath><clipPath id="9cf44e8f2d"><path d="M 164 8 L 187.257812 8 L 187.257812 39 L 164 39 Z M 164 8 " clip-rule="nonzero"/></clipPath><clipPath id="39a1e08d37"><path d="M 80 7.726562 L 108 7.726562 L 108 40 L 80 40 Z M 80 7.726562 " clip-rule="nonzero"/></clipPath><clipPath id="4cca4d4d9d"><path d="M 8 7.726562 L 35 7.726562 L 35 40 L 8 40 Z M 8 7.726562 " clip-rule="nonzero"/></clipPath></defs><g clip-path="url(#d8e1ba4bfc)"><path fill="#ff9900" d="M 119.144531 49.761719 C 108.734375 57.386719 93.648438 61.457031 80.65625 61.457031 C 62.445312 61.457031 46.046875 54.761719 33.640625 43.621094 C 32.667969 42.746094 33.539062 41.554688 34.710938 42.234375 C 48.097656 49.980469 64.652344 54.636719 81.75 54.636719 C 93.28125 54.636719 105.96875 52.265625 117.632812 47.34375 C 119.394531 46.597656 120.867188 48.492188 119.144531 49.761719 " fill-opacity="1" fill-rule="nonzero"/></g><path fill="#ff9900" d="M 123.472656 44.839844 C 122.148438 43.148438 114.675781 44.042969 111.324219 44.4375 C 110.304688 44.5625 110.148438 43.675781 111.066406 43.042969 C 117.015625 38.878906 126.777344 40.082031 127.917969 41.476562 C 129.054688 42.878906 127.621094 52.605469 122.03125 57.25 C 121.171875 57.960938 120.351562 57.582031 120.734375 56.636719 C 121.992188 53.519531 124.804688 46.539062 123.472656 44.839844 " fill-opacity="1" fill-rule="nonzero"/><path fill="#221f1f" d="M 111.558594 13.65625 L 111.558594 9.613281 C 111.558594 9 112.027344 8.589844 112.585938 8.589844 L 130.808594 8.589844 C 131.394531 8.589844 131.863281 9.007812 131.863281 9.613281 L 131.863281 13.078125 C 131.855469 13.65625 131.363281 14.417969 130.488281 15.617188 L 121.046875 29.019531 C 124.554688 28.933594 128.261719 29.453125 131.441406 31.238281 C 132.160156 31.640625 132.351562 32.230469 132.40625 32.808594 L 132.40625 37.128906 C 132.40625 37.714844 131.753906 38.40625 131.066406 38.050781 C 125.460938 35.128906 118.015625 34.808594 111.816406 38.082031 C 111.183594 38.421875 110.519531 37.738281 110.519531 37.152344 L 110.519531 33.050781 C 110.519531 32.390625 110.527344 31.269531 111.191406 30.269531 L 122.132812 14.671875 L 112.609375 14.671875 C 112.027344 14.671875 111.558594 14.261719 111.558594 13.65625 " fill-opacity="1" fill-rule="nonzero"/><path fill="#221f1f" d="M 45.085938 38.902344 L 39.542969 38.902344 C 39.011719 38.863281 38.59375 38.46875 38.554688 37.964844 L 38.554688 9.683594 C 38.554688 9.117188 39.027344 8.667969 39.621094 8.667969 L 44.792969 8.667969 C 45.328125 8.691406 45.757812 9.101562 45.796875 9.613281 L 45.796875 13.308594 L 45.898438 13.308594 C 47.246094 9.734375 49.78125 8.070312 53.195312 8.070312 C 56.667969 8.070312 58.832031 9.734375 60.394531 13.308594 C 61.734375 9.734375 64.78125 8.070312 68.050781 8.070312 C 70.375 8.070312 72.914062 9.023438 74.46875 11.164062 C 76.222656 13.542969 75.863281 17 75.863281 20.03125 L 75.855469 37.878906 C 75.855469 38.445312 75.378906 38.902344 74.785156 38.902344 L 69.25 38.902344 C 68.695312 38.863281 68.253906 38.421875 68.253906 37.878906 L 68.253906 22.890625 C 68.253906 21.695312 68.363281 18.71875 68.097656 17.585938 C 67.683594 15.6875 66.445312 15.152344 64.835938 15.152344 C 63.496094 15.152344 62.09375 16.046875 61.523438 17.472656 C 60.953125 18.898438 61.007812 21.285156 61.007812 22.890625 L 61.007812 37.878906 C 61.007812 38.445312 60.535156 38.902344 59.941406 38.902344 L 54.40625 38.902344 C 53.84375 38.863281 53.40625 38.421875 53.40625 37.878906 L 53.398438 22.890625 C 53.398438 19.734375 53.921875 15.09375 49.984375 15.09375 C 46 15.09375 46.15625 19.617188 46.15625 22.890625 L 46.15625 37.878906 C 46.15625 38.445312 45.679688 38.902344 45.085938 38.902344 " fill-opacity="1" fill-rule="nonzero"/><path fill="#221f1f" d="M 147.550781 8.070312 C 155.777344 8.070312 160.226562 15.09375 160.226562 24.019531 C 160.226562 32.648438 155.308594 39.492188 147.550781 39.492188 C 139.472656 39.492188 135.074219 32.46875 135.074219 23.71875 C 135.074219 14.914062 139.527344 8.070312 147.550781 8.070312 M 147.597656 13.84375 C 143.511719 13.84375 143.253906 19.378906 143.253906 22.828125 C 143.253906 26.285156 143.199219 33.664062 147.550781 33.664062 C 151.847656 33.664062 152.050781 27.710938 152.050781 24.082031 C 152.050781 21.695312 151.949219 18.84375 151.222656 16.582031 C 150.597656 14.613281 149.359375 13.84375 147.597656 13.84375 " fill-opacity="1" fill-rule="nonzero"/><g clip-path="url(#9cf44e8f2d)"><path fill="#221f1f" d="M 170.894531 38.902344 L 165.375 38.902344 C 164.820312 38.863281 164.375 38.421875 164.375 37.878906 L 164.367188 9.589844 C 164.414062 9.070312 164.875 8.667969 165.4375 8.667969 L 170.574219 8.667969 C 171.058594 8.691406 171.457031 9.015625 171.566406 9.457031 L 171.566406 13.78125 L 171.667969 13.78125 C 173.21875 9.914062 175.394531 8.070312 179.222656 8.070312 C 181.710938 8.070312 184.132812 8.960938 185.695312 11.402344 C 187.144531 13.664062 187.144531 17.472656 187.144531 20.207031 L 187.144531 38.011719 C 187.082031 38.507812 186.621094 38.902344 186.074219 38.902344 L 180.515625 38.902344 C 180.007812 38.863281 179.589844 38.492188 179.535156 38.011719 L 179.535156 22.648438 C 179.535156 19.554688 179.894531 15.03125 176.0625 15.03125 C 174.714844 15.03125 173.476562 15.929688 172.859375 17.292969 C 172.078125 19.023438 171.980469 20.742188 171.980469 22.648438 L 171.980469 37.878906 C 171.972656 38.445312 171.488281 38.902344 170.894531 38.902344 " fill-opacity="1" fill-rule="nonzero"/></g><g clip-path="url(#39a1e08d37)"><path fill="#221f1f" d="M 97.03125 25.394531 L 97.03125 24.199219 C 93.023438 24.199219 88.789062 25.050781 88.789062 29.75 C 88.789062 32.128906 90.03125 33.742188 92.160156 33.742188 C 93.71875 33.742188 95.113281 32.789062 95.996094 31.238281 C 97.085938 29.332031 97.03125 27.539062 97.03125 25.394531 M 102.621094 38.824219 C 102.257812 39.152344 101.726562 39.175781 101.3125 38.957031 C 99.472656 37.4375 99.144531 36.730469 98.132812 35.28125 C 95.089844 38.367188 92.9375 39.289062 88.992188 39.289062 C 84.332031 39.289062 80.695312 36.429688 80.695312 30.703125 C 80.695312 26.230469 83.136719 23.183594 86.605469 21.695312 C 89.617188 20.378906 93.820312 20.144531 97.03125 19.78125 L 97.03125 19.066406 C 97.03125 17.757812 97.132812 16.207031 96.363281 15.078125 C 95.683594 14.0625 94.390625 13.644531 93.25 13.644531 C 91.136719 13.644531 89.25 14.71875 88.789062 16.953125 C 88.695312 17.449219 88.332031 17.9375 87.832031 17.960938 L 82.453125 17.386719 C 82 17.285156 81.5 16.921875 81.625 16.230469 C 82.863281 9.75 88.75 7.796875 94.023438 7.796875 C 96.71875 7.796875 100.246094 8.511719 102.375 10.542969 C 105.070312 13.046875 104.8125 16.386719 104.8125 20.023438 L 104.8125 28.609375 C 104.8125 31.191406 105.890625 32.320312 106.902344 33.71875 C 107.261719 34.214844 107.339844 34.808594 106.886719 35.183594 C 105.757812 36.121094 103.746094 37.863281 102.636719 38.839844 L 102.621094 38.824219 " fill-opacity="1" fill-rule="nonzero"/></g><g clip-path="url(#4cca4d4d9d)"><path fill="#221f1f" d="M 24.355469 25.394531 L 24.355469 24.199219 C 20.347656 24.199219 16.113281 25.050781 16.113281 29.75 C 16.113281 32.128906 17.351562 33.742188 19.480469 33.742188 C 21.039062 33.742188 22.4375 32.789062 23.316406 31.238281 C 24.410156 29.332031 24.355469 27.539062 24.355469 25.394531 M 29.945312 38.824219 C 29.578125 39.152344 29.046875 39.175781 28.636719 38.957031 C 26.796875 37.4375 26.46875 36.730469 25.453125 35.28125 C 22.414062 38.367188 20.261719 39.289062 16.316406 39.289062 C 11.652344 39.289062 8.019531 36.429688 8.019531 30.703125 C 8.019531 26.230469 10.460938 23.183594 13.929688 21.695312 C 16.941406 20.378906 21.140625 20.144531 24.355469 19.78125 L 24.355469 19.066406 C 24.355469 17.757812 24.457031 16.207031 23.683594 15.078125 C 23.003906 14.0625 21.710938 13.644531 20.574219 13.644531 C 18.460938 13.644531 16.574219 14.71875 16.113281 16.953125 C 16.019531 17.449219 15.652344 17.9375 15.152344 17.960938 L 9.773438 17.386719 C 9.320312 17.285156 8.824219 16.921875 8.949219 16.230469 C 10.1875 9.75 16.074219 7.796875 21.34375 7.796875 C 24.042969 7.796875 27.566406 8.511719 29.695312 10.542969 C 32.394531 13.046875 32.136719 16.386719 32.136719 20.023438 L 32.136719 28.609375 C 32.136719 31.191406 33.210938 32.320312 34.226562 33.71875 C 34.585938 34.214844 34.664062 34.808594 34.210938 35.183594 C 33.078125 36.121094 31.066406 37.863281 29.960938 38.839844 L 29.945312 38.824219 " fill-opacity="1" fill-rule="nonzero"/></g></svg>