<svg xmlns="http://www.w3.org/2000/svg" xmlns:xlink="http://www.w3.org/1999/xlink" width="260" zoomAndPan="magnify" viewBox="0 0 194.87999 54" height="72" preserveAspectRatio="xMidYMid meet" version="1.0"><defs><clipPath id="1b9f804e82"><path d="M 100 7.304688 L 110 7.304688 L 110 45.597656 L 100 45.597656 Z M 100 7.304688 " clip-rule="nonzero"/></clipPath><clipPath id="de3313963b"><path d="M 111 18 L 139 18 L 139 45.597656 L 111 45.597656 Z M 111 18 " clip-rule="nonzero"/></clipPath><clipPath id="902abe47d2"><path d="M 69 18 L 97 18 L 97 45.597656 L 69 45.597656 Z M 69 18 " clip-rule="nonzero"/></clipPath><clipPath id="0e7b27ed22"><path d="M 158 18 L 185.644531 18 L 185.644531 45.597656 L 158 45.597656 Z M 158 18 " clip-rule="nonzero"/></clipPath></defs><path fill="#059bd2" d="M 26.996094 36.136719 C 26.996094 36.136719 25.132812 33.855469 24.027344 32.621094 L 22.480469 36.265625 C 24.710938 39.566406 26.179688 42.425781 26.996094 43.789062 C 28.570312 41.113281 32.425781 33.199219 40.378906 25.78125 L 39.484375 23.710938 C 34.316406 27.539062 29.90625 32.414062 26.996094 36.136719 " fill-opacity="1" fill-rule="nonzero"/><g clip-path="url(#1b9f804e82)"><path fill="#fc6600" d="M 106.664062 36.894531 C 106.664062 39.019531 107.898438 40.117188 109.863281 40.433594 L 109.863281 45.597656 C 103.988281 45.515625 100.863281 42.6875 100.863281 37.3125 L 100.863281 7.304688 L 106.664062 7.304688 Z M 106.664062 36.894531 " fill-opacity="1" fill-rule="evenodd"/></g><g clip-path="url(#de3313963b)"><path fill="#fc6600" d="M 124.875 18.46875 C 117.605469 18.46875 111.859375 24.417969 111.859375 31.941406 C 111.859375 39.464844 117.421875 45.414062 124.375 45.414062 C 127.917969 45.414062 130.753906 44.074219 132.433594 42.136719 L 132.746094 42.242188 L 132.746094 44.886719 L 138.574219 44.886719 L 138.574219 18.996094 L 132.746094 18.996094 L 132.746094 20.804688 L 132.484375 20.90625 C 130.726562 19.464844 128.339844 18.46875 124.875 18.46875 M 125.582031 40.5625 C 121.226562 40.5625 117.632812 36.789062 117.632812 31.96875 C 117.632812 27.09375 121.226562 23.371094 125.582031 23.371094 C 128.445312 23.371094 130.9375 24.210938 132.695312 25.546875 L 132.695312 36.632812 C 131.199219 39.464844 128.496094 40.5625 125.582031 40.5625 " fill-opacity="1" fill-rule="evenodd"/></g><path fill="#fc6600" d="M 143.375 44.96875 L 149.175781 44.96875 L 149.175781 26.832031 C 150.984375 24.96875 153.53125 23.765625 156.496094 23.765625 L 157.730469 23.765625 L 157.730469 18.46875 L 156.992188 18.46875 C 153.820312 18.46875 151.167969 19.964844 149.460938 22.035156 L 149.148438 21.929688 L 149.148438 18.996094 L 143.347656 18.996094 L 143.347656 44.96875 Z M 143.375 44.96875 " fill-opacity="1" fill-rule="evenodd"/><g clip-path="url(#902abe47d2)"><path fill="#fc6600" d="M 82.441406 18.46875 C 75.171875 18.46875 69.402344 24.445312 69.402344 31.941406 C 69.402344 39.464844 74.964844 45.414062 81.917969 45.414062 C 85.433594 45.414062 88.292969 44.074219 89.972656 42.136719 L 90.289062 42.242188 L 90.289062 44.886719 L 96.113281 44.886719 L 96.113281 18.996094 L 90.289062 18.996094 L 90.289062 20.804688 L 90.027344 20.90625 C 88.292969 19.464844 85.90625 18.46875 82.441406 18.46875 M 83.152344 40.5625 C 78.796875 40.5625 75.199219 36.789062 75.199219 31.96875 C 75.199219 27.09375 78.769531 23.371094 83.152344 23.371094 C 86.011719 23.371094 88.503906 24.210938 90.261719 25.546875 L 90.261719 36.632812 C 88.765625 39.464844 86.0625 40.5625 83.152344 40.5625 " fill-opacity="1" fill-rule="evenodd"/></g><g clip-path="url(#0e7b27ed22)"><path fill="#fc6600" d="M 171.871094 18.46875 C 164.605469 18.46875 158.855469 24.417969 158.855469 31.941406 C 158.855469 39.464844 164.421875 45.414062 171.375 45.414062 C 174.890625 45.414062 177.75 44.074219 179.429688 42.136719 L 179.746094 42.242188 L 179.746094 44.886719 L 185.570312 44.886719 L 185.570312 18.996094 L 179.746094 18.996094 L 179.746094 20.804688 L 179.484375 20.90625 C 177.726562 19.464844 175.335938 18.46875 171.871094 18.46875 M 172.582031 40.5625 C 168.226562 40.5625 164.65625 36.789062 164.65625 31.96875 C 164.65625 27.09375 168.226562 23.371094 172.582031 23.371094 C 175.441406 23.371094 177.933594 24.210938 179.691406 25.546875 L 179.691406 36.632812 C 178.195312 39.464844 175.496094 40.5625 172.582031 40.5625 " fill-opacity="1" fill-rule="evenodd"/></g><path fill="#fc6600" d="M 38.59375 44.863281 L 44.917969 44.863281 L 39.355469 31.546875 C 37.726562 33.277344 36.335938 34.980469 35.101562 36.605469 Z M 38.59375 44.863281 " fill-opacity="1" fill-rule="nonzero"/><path fill="#fc6600" d="M 63.730469 19.019531 L 55.625 37.96875 L 55.308594 37.96875 L 47.199219 19.019531 L 40.929688 19.019531 L 52.5 44.863281 L 58.40625 44.863281 L 69.976562 19.019531 Z M 63.730469 19.019531 " fill-opacity="1" fill-rule="nonzero"/><path fill="#fc6600" d="M 29.75 8.695312 L 24.1875 8.695312 L 9.046875 44.863281 L 15.371094 44.863281 L 26.3125 19.074219 L 26.835938 17.683594 L 27.125 17.683594 L 27.652344 19.074219 L 30.90625 26.726562 C 32.347656 25.285156 33.921875 23.871094 35.574219 22.53125 Z M 29.75 8.695312 " fill-opacity="1" fill-rule="nonzero"/></svg>